<svg xmlns="http://www.w3.org/2000/svg" xmlns:xlink="http://www.w3.org/1999/xlink" width="28" height="28" viewBox="0 0 28 28" fill="#cb005b"><defs><style>.b{clip-path:url(#a);}</style><clipPath id="a"><rect class="a" width="28" height="28" transform="translate(1392 27)"/></clipPath></defs><g class="b" transform="translate(-1392 -27)"><g transform="translate(1392 27.774)"><path class="a" d="M9.217,19.759a3.335,3.335,0,1,0,3.335,3.335,3.335,3.335,0,0,0-3.335-3.335Zm0,5.444a2.109,2.109,0,1,1,2.109-2.109A2.109,2.109,0,0,1,9.217,25.2Zm0,0"/><path class="a" d="M27.393,5.764H5.747l-.441-2.47A3.684,3.684,0,0,0,2.321.315L.72.033A.613.613,0,1,0,.506,1.24l1.606.282A2.452,2.452,0,0,1,4.1,3.509L6.268,15.75a3.059,3.059,0,0,0,3.016,2.532H22.157a3.057,3.057,0,0,0,2.936-2.176l2.881-9.551a.641.641,0,0,0-.092-.545.621.621,0,0,0-.49-.245Zm-3.47,9.98a1.826,1.826,0,0,1-1.759,1.306H9.29a1.83,1.83,0,0,1-1.808-1.52L5.968,6.984h20.6Zm0,0"/><path class="a" d="M22.09,19.759a3.335,3.335,0,1,0,3.335,3.335A3.335,3.335,0,0,0,22.09,19.759Zm0,5.444A2.109,2.109,0,1,1,24.2,23.094,2.109,2.109,0,0,1,22.09,25.2Zm0,0"/></g></g></svg>