<svg xmlns="http://www.w3.org/2000/svg" width="32" height="32" fill="none" viewBox="0 0 32 32"><g filter="url(#filter0_d_8021_15972)"><ellipse cx="15.362" cy="21.181" fill="#C6E7F5" rx="13.362" ry="5.129"/></g><ellipse cx="15.362" cy="20.325" fill="#fff" rx="13.362" ry="5.129"/><path fill="#5A31DD" d="m5.725 10.783 1.426.218s.196-.002.32-.033v-.873s-.823.725-1.745.688ZM9.617 7.43l.595.547v13.006l-.595.547V7.43Z"/><path fill="#fff" d="M7.471 21.53V10.094c-.181.22-.438.388-.768.509-.332.12-.657.18-.977.18V9.191a2.804 2.804 0 0 0 1.293-.553c.408-.304.72-.707.933-1.208h1.665v14.1H7.471Z"/><path fill="#7654E3" d="M9.415 7.633v13.694H7.674V9.535l-.359.432c-.158.189-.387.34-.682.447-.238.086-.474.14-.706.16V9.36c.423-.087.83-.276 1.212-.56.402-.299.718-.692.943-1.168h1.333Z"/><path fill="#fff" d="M16.538 20.688c-.504.672-1.314 1.009-2.43 1.009s-1.926-.337-2.43-1.009c-.505-.672-.757-1.66-.757-2.962v-6.734c0-1.239.255-2.169.764-2.79.51-.622 1.319-.933 2.423-.933 1.105 0 1.913.31 2.423.932.51.622.764 1.553.764 2.79v6.734c0 1.303-.252 2.29-.756 2.963Zm-2.45-.84c.339 0 .6-.133.784-.397.184-.264.277-.826.277-1.685v-6.862c-.005-1.041-.248-1.626-.729-1.754a2.352 2.352 0 0 0-.46-.032c-.211 0-.414.104-.609.312-.194.209-.292.697-.292 1.466v6.87c0 .875.087 1.441.26 1.697.173.256.43.384.769.384Z"/><path fill="#7654E3" d="M11.124 12.57v4.852l1.733-1v-4.853l-1.733 1Zm0 4.852v.304l.001.086 1.732-1v-.39l-1.732 1h-.001Zm5.854-7.702a4.112 4.112 0 0 0-.12-.462 2.78 2.78 0 0 0-.485-.927 2.047 2.047 0 0 0-.69-.542c-.422-.211-.949-.317-1.575-.317-1.036 0-1.798.29-2.266.859-.394.48-.628 1.178-.696 2.077a7.122 7.122 0 0 0-.023.585v6.734a7.417 7.417 0 0 0 .075 1.114c.105.719.32 1.297.642 1.727.468.624 1.21.927 2.268.927 1.058 0 1.8-.303 2.268-.927.475-.634.716-1.59.716-2.841v-6.734c0-.47-.038-.895-.114-1.273Zm-1.626 8.047c0 .91-.102 1.499-.313 1.801-.223.321-.543.483-.95.483-.409 0-.725-.159-.937-.473-.193-.285-.287-.826-.294-1.694l-.001-.117v-6.87c0-.841.11-1.351.347-1.605.087-.093.178-.17.271-.228l.048-.027c.14-.08.286-.12.437-.12.227 0 .392.012.512.039.446.119.718.514.826 1.205.024.151.04.318.048.5.004.078.006.16.006.244v6.862Zm-4.228-5.198v5.158l.001.086 1.732-1v-5.244l-1.732 1h-.001Z"/><path fill="#5A31DD" d="M13.816 19.066c-.122.236-.295.357-.517.364l.02.033c.173.257.43.385.768.385.34 0 .601-.133.785-.397.184-.264.277-.826.277-1.685v-6.862c-.006-1.041-.248-1.626-.73-1.754a2.353 2.353 0 0 0-.46-.032c-.21 0-.413.104-.608.312a.577.577 0 0 0-.077.107c.102.002.18.012.232.027.33.119.496.658.5 1.617v6.33c0 .793-.063 1.31-.19 1.555Z"/><g style="mix-blend-mode:screen"><path fill="#492867" d="m7.674 14.56 1.74-1.005v-2.148l-1.74 1.005v2.149Zm5.182 2.252-1.732 1c.003.37.027.713.074 1.028l1.66-.957c-.002-.039-.002-.077-.002-.117v-.954Zm-5.182 2.602 1.74-1.006v-4.323l-1.74 1.006v4.323Zm0 1.461 1.74-1.005V18.8l-1.74 1.005v1.071Zm5.183-8.777L11.124 13.1v4.323l1.733-1v-4.323Zm2.495 4.344 1.74-1.005v-1.07l-1.74 1.004v1.071Zm-4.228-5.45v1.577l1.733-1v-.673c0-.84.11-1.35.347-1.604.087-.093.178-.17.271-.229l-2.33 1.344a7.123 7.123 0 0 0-.022.586Zm5.854-1.273-1.632.941c.004.078.006.16.006.244v4.076l1.74-1.005v-2.983c0-.47-.039-.895-.115-1.274v.001Zm-.605-1.389a2.047 2.047 0 0 0-.69-.542l-2.16 1.248c.14-.08.287-.12.438-.12.226 0 .391.012.512.04.445.118.717.514.826 1.204l1.56-.902a2.78 2.78 0 0 0-.486-.927Z"/></g><mask id="mask0_8021_15972" width="8" height="15" x="17" y="7" maskUnits="userSpaceOnUse" style="mask-type:alpha"><path fill="#D9D9D9" d="M17.461 7h7.265v14.799h-7.265z"/></mask><g mask="url(#mask0_8021_15972)"><path fill="#fff" d="M23.43 20.688c-.504.672-1.314 1.009-2.43 1.009-1.115 0-1.925-.337-2.43-1.009-.504-.672-.756-1.66-.756-2.962v-6.734c0-1.239.254-2.169.764-2.79.51-.622 1.318-.933 2.423-.933s1.912.31 2.422.932c.51.622.765 1.553.765 2.79v6.734c0 1.303-.253 2.29-.757 2.963Zm-2.45-.84c.339 0 .6-.133.785-.397.184-.264.276-.826.276-1.685v-6.862c-.005-1.041-.248-1.626-.729-1.754a2.351 2.351 0 0 0-.46-.032c-.21 0-.414.104-.608.312-.195.209-.292.697-.292 1.466v6.87c0 .875.086 1.441.26 1.697.173.256.43.384.768.384Z"/><path fill="#7654E3" d="M18.016 12.57v4.852l1.733-1v-4.853l-1.733 1Zm0 4.852v.304l.001.086 1.733-1v-.39l-1.733 1ZM23.87 9.72a4.155 4.155 0 0 0-.119-.462 2.78 2.78 0 0 0-.486-.927 2.047 2.047 0 0 0-.69-.542c-.421-.211-.948-.317-1.575-.317-1.035 0-1.797.29-2.265.859-.395.48-.629 1.178-.697 2.077a7.077 7.077 0 0 0-.022.585v6.82c.004.37.028.712.075 1.028.104.719.319 1.297.642 1.727.467.624 1.209.927 2.267.927 1.058 0 1.8-.303 2.269-.927.475-.634.716-1.59.716-2.841v-6.734a6.5 6.5 0 0 0-.115-1.273Zm-1.626 8.047c0 .91-.102 1.499-.312 1.801-.224.321-.544.483-.951.483-.408 0-.725-.159-.937-.473-.192-.285-.287-.826-.294-1.694v-6.987c0-.841.11-1.351.346-1.605.087-.093.178-.17.271-.228l.048-.027c.14-.08.287-.12.437-.12.227 0 .392.012.512.039.446.119.718.514.826 1.205.025.151.04.318.048.5.004.078.006.16.006.244v6.862Zm-4.228-5.198v5.158l.001.086 1.733-1v-5.244l-1.733 1Z"/><path fill="#5A31DD" d="M20.71 19.066c-.123.236-.296.357-.518.364l.02.033c.173.257.43.385.768.385.34 0 .6-.133.785-.397.184-.264.276-.826.276-1.685v-6.862c-.005-1.041-.248-1.626-.728-1.754a2.353 2.353 0 0 0-.46-.032c-.212 0-.415.104-.61.312a.577.577 0 0 0-.076.107c.102.002.18.012.232.027.329.119.496.658.5 1.617v6.33c0 .793-.064 1.31-.19 1.555Z"/><g style="mix-blend-mode:screen"><path fill="#492867" d="m14.566 14.56 1.741-1.005v-2.148l-1.74 1.005v2.149Zm5.183 2.252-1.733 1c.003.37.028.713.075 1.028l1.659-.957-.001-.117v-.954Zm-5.183 2.602 1.741-1.006v-4.323l-1.74 1.006v4.323Zm0 1.461 1.741-1.005V18.8l-1.74 1.005v1.071Zm5.183-8.777L18.016 13.1v4.323l1.733-1v-4.323Zm2.496 4.344 1.74-1.005v-1.07l-1.74 1.004v1.071Zm-4.229-5.45v1.577l1.733-1v-.673c0-.84.11-1.35.348-1.604.087-.093.177-.17.27-.229l-2.329 1.344a7.123 7.123 0 0 0-.022.586ZM23.87 9.72l-1.632.941c.004.078.006.16.006.244v4.076l1.74-1.005v-2.983a6.5 6.5 0 0 0-.114-1.274v.001Zm-.604-1.389a2.048 2.048 0 0 0-.69-.542l-2.16 1.248c.14-.08.286-.12.437-.12.227 0 .392.012.512.04.446.118.718.514.826 1.204l1.561-.902a2.78 2.78 0 0 0-.486-.927Z"/></g></g><defs><filter id="filter0_d_8021_15972" width="30.724" height="14.258" x="0" y="16.052" color-interpolation-filters="sRGB" filterUnits="userSpaceOnUse"><feFlood flood-opacity="0" result="BackgroundImageFix"/><feColorMatrix in="SourceAlpha" result="hardAlpha" type="matrix" values="0 0 0 0 0 0 0 0 0 0 0 0 0 0 0 0 0 0 127 0"/><feOffset dy="2"/><feGaussianBlur stdDeviation="1"/><feComposite in2="hardAlpha" operator="out"/><feColorMatrix type="matrix" values="0 0 0 0 0.741176 0 0 0 0 0.67451 0 0 0 0 0.952941 0 0 0 1 0"/><feBlend in2="BackgroundImageFix" mode="normal" result="effect1_dropShadow_8021_15972"/><feBlend in="SourceGraphic" in2="effect1_dropShadow_8021_15972" mode="normal" result="shape"/></filter></defs></svg>