<svg xmlns:mydata="http://www.w3.org/2000/svg" mydata:contrastcolor="ffffff" mydata:template="SingleColorHex1" mydata:presentation="2.5" mydata:layouttype="undefined" mydata:specialfontid="undefined" mydata:id1="017" mydata:id2="332" mydata:companyname="cryptosleep" mydata:companytagline="" version="1.1" xmlns="http://www.w3.org/2000/svg" xmlns:xlink="http://www.w3.org/1999/xlink" viewBox="0 0 550 470"><g fill="#ffffff" fill-rule="none" stroke="none" stroke-width="1" stroke-linecap="butt" stroke-linejoin="miter" stroke-miterlimit="10" stroke-dasharray="" stroke-dashoffset="0" font-family="none" font-weight="none" font-size="none" text-anchor="none" style="mix-blend-mode: normal"><g data-paper-data="{&quot;isGlobalGroup&quot;:true,&quot;bounds&quot;:{&quot;x&quot;:65,&quot;y&quot;:158.3709884803826,&quot;width&quot;:420,&quot;height&quot;:153.25802303923479}}"><g data-paper-data="{&quot;isPrimaryText&quot;:true}" fill-rule="nonzero"><path d="M97.46651,271.36847h1.44525l0.46454,11.8717h-1.90979c-0.75704,-3.02814 -2.21949,-5.40248 -4.38737,-7.12302c-2.16788,-1.72054 -4.78309,-2.5808 -7.84564,-2.5808c-2.09905,0 -3.97444,0.41293 -5.62615,1.23879c-1.65171,0.82586 -3.04535,2.01303 -4.1809,3.56151c-1.13555,1.54848 -2.00442,3.44107 -2.60661,5.67777c-0.60219,2.2367 -0.90328,4.76588 -0.90328,7.58756c0,5.54013 1.15276,9.79845 3.45828,12.77498c2.30552,2.97653 5.64336,4.46479 10.01352,4.46479c6.64127,0 10.9082,-3.5271 12.80079,-10.5813h2.11626v12.8524h-1.80656l-1.18717,-4.07767c-3.61313,3.06255 -7.98329,4.59383 -13.11048,4.59383c-2.92491,0 -5.56593,-0.46454 -7.92307,-1.39363c-2.35713,-0.92909 -4.37016,-2.2453 -6.03908,-3.94863c-1.66892,-1.70333 -2.95932,-3.77658 -3.87121,-6.21974c-0.91188,-2.44316 -1.36783,-5.16161 -1.36783,-8.15534c0,-3.13138 0.48175,-5.98746 1.44525,-8.56827c0.9635,-2.5808 2.31412,-4.80029 4.05186,-6.65847c1.73774,-1.85818 3.81959,-3.29483 6.24555,-4.30994c2.42596,-1.01512 5.10139,-1.52267 8.0263,-1.52267c2.06464,0 4.00885,0.29249 5.83262,0.87747c1.82377,0.58498 3.80238,1.53128 5.93585,2.83888z" data-paper-data="{&quot;glyphName&quot;:&quot;C&quot;,&quot;glyphIndex&quot;:0,&quot;firstGlyphOfWord&quot;:true,&quot;word&quot;:1}"></path><path d="M137.2625,281.33038c0,2.75286 -0.82586,5.04117 -2.47757,6.86494c-1.65171,1.82377 -4.28413,3.04535 -7.89726,3.66474l11.40715,13.72988c0.92909,1.13555 1.95281,1.95281 3.07116,2.45176c1.11835,0.49896 2.45176,0.86887 4.00025,1.10975v1.96141h-9.9619l-12.64594,-16.20745c-0.44734,-0.58498 -0.86887,-1.04953 -1.26459,-1.39363c-0.39572,-0.34411 -0.80865,-0.61079 -1.23879,-0.80005c-0.43013,-0.18926 -0.92909,-0.3097 -1.49687,-0.36131c-0.56778,-0.05162 -1.24739,-0.07742 -2.03883,-0.07742v10.73614c0,1.2732 0.07742,2.31412 0.23227,3.12277c0.15485,0.80865 0.48175,1.43665 0.98071,1.88399c0.49896,0.44734 1.22158,0.74843 2.16788,0.90328c0.94629,0.15485 2.19368,0.23227 3.74217,0.23227v1.96141h-18.22047v-1.96141c1.20438,-0.03441 2.17648,-0.13764 2.91631,-0.3097c0.73983,-0.17205 1.31621,-0.46454 1.72914,-0.87747c0.41293,-0.41293 0.68821,-0.99791 0.82586,-1.75495c0.13764,-0.75704 0.20646,-1.73774 0.20646,-2.94212v-24.05309c0,-1.20438 -0.06022,-2.17648 -0.18066,-2.91631c-0.12044,-0.73983 -0.36131,-1.32481 -0.72263,-1.75495c-0.36131,-0.43013 -0.88608,-0.72263 -1.57429,-0.87747c-0.68821,-0.15485 -1.58289,-0.26668 -2.68404,-0.3355v-1.96141h16.20745c4.74868,0 8.42202,0.87747 11.02003,2.63242c2.59801,1.75495 3.89701,4.19811 3.89701,7.32948zM116.71931,289.69218h3.66474c3.44107,0 5.99607,-0.628 7.66499,-1.88399c1.66892,-1.25599 2.50338,-3.32924 2.50338,-6.21974c0,-2.78727 -0.66241,-4.78309 -1.98722,-5.98746c-1.32481,-1.20438 -3.39806,-1.80656 -6.21974,-1.80656h-4.74868c-0.58498,0 -0.87747,0.29249 -0.87747,0.87747z" data-paper-data="{&quot;glyphName&quot;:&quot;R&quot;,&quot;glyphIndex&quot;:1,&quot;word&quot;:1}"></path><path d="M148.05026,277.76887c-0.51616,-0.89468 -0.99791,-1.62591 -1.44525,-2.19368c-0.44734,-0.56778 -0.90328,-1.02372 -1.36783,-1.36783c-0.46454,-0.34411 -0.9549,-0.57638 -1.47106,-0.69682c-0.51616,-0.12044 -1.13555,-0.18066 -1.85818,-0.18066v-1.96141h16.25906v1.96141c-1.72054,0 -2.93351,0.12904 -3.63893,0.38712c-0.70542,0.25808 -1.05813,0.71402 -1.05813,1.36783c0,0.72263 0.39572,1.75495 1.18717,3.09696l8.00049,13.67826h0.20646l5.83262,-9.80705c1.10114,-1.85818 1.88399,-3.32063 2.34853,-4.38737c0.46454,-1.06673 0.69682,-1.927 0.69682,-2.5808c0,-0.6538 -0.24948,-1.10975 -0.74843,-1.36783c-0.49896,-0.25808 -1.36783,-0.38712 -2.60661,-0.38712v-1.96141h11.82008v1.96141c-0.72263,0 -1.36783,0.10323 -1.9356,0.3097c-0.56778,0.20646 -1.16136,0.61939 -1.78075,1.23879c-0.61939,0.61939 -1.299,1.47966 -2.03883,2.5808c-0.73983,1.10114 -1.64311,2.54639 -2.70984,4.33575l-7.94888,13.42018v6.14231c0,1.68613 0.06022,3.03675 0.18066,4.05186c0.12044,1.01512 0.37852,1.79796 0.77424,2.34853c0.39572,0.55057 0.9635,0.92049 1.70333,1.10975c0.73983,0.18926 1.72914,0.28389 2.96792,0.28389v1.96141h-16.72361v-1.96141c1.23879,0 2.22809,-0.09463 2.96792,-0.28389c0.73983,-0.18926 1.30761,-0.55057 1.70333,-1.08394c0.39572,-0.53337 0.66241,-1.2818 0.80005,-2.2453c0.13764,-0.9635 0.20646,-2.2367 0.20646,-3.81959v-6.29716z" data-paper-data="{&quot;glyphName&quot;:&quot;Y&quot;,&quot;glyphIndex&quot;:2,&quot;word&quot;:1}"></path><path d="M213.96399,281.33038c0,1.82377 -0.29249,3.45828 -0.87747,4.90353c-0.58498,1.44525 -1.50547,2.66683 -2.76146,3.66474c-1.25599,0.99791 -2.8905,1.77215 -4.90353,2.32272c-2.01303,0.55057 -4.46479,0.82586 -7.35529,0.82586h-4.64545v9.9619c0,1.2732 0.07742,2.31412 0.23227,3.12277c0.15485,0.80865 0.48175,1.43665 0.98071,1.88399c0.49896,0.44734 1.22158,0.74843 2.16788,0.90328c0.94629,0.15485 2.19368,0.23227 3.74217,0.23227v1.96141h-18.22047v-1.96141c1.20438,-0.03441 2.17648,-0.13764 2.91631,-0.3097c0.73983,-0.17205 1.31621,-0.46454 1.72914,-0.87747c0.41293,-0.41293 0.68821,-0.99791 0.82586,-1.75495c0.13764,-0.75704 0.20646,-1.73774 0.20646,-2.94212v-24.05309c0,-1.20438 -0.06022,-2.17648 -0.18066,-2.91631c-0.12044,-0.73983 -0.36131,-1.32481 -0.72263,-1.75495c-0.36131,-0.43013 -0.88608,-0.72263 -1.57429,-0.87747c-0.68821,-0.15485 -1.58289,-0.26668 -2.68404,-0.3355v-1.96141h16.20745c4.74868,0 8.42202,0.87747 11.02003,2.63242c2.59801,1.75495 3.89701,4.19811 3.89701,7.32948zM193.42079,290.46642h3.66474c3.44107,0 5.99607,-0.66241 7.66499,-1.98722c1.66892,-1.32481 2.50338,-3.50129 2.50338,-6.52943c0,-2.92491 -0.66241,-5.01536 -1.98722,-6.27135c-1.32481,-1.25599 -3.39806,-1.88399 -6.21974,-1.88399h-4.74868c-0.58498,0 -0.87747,0.29249 -0.87747,0.87747z" data-paper-data="{&quot;glyphName&quot;:&quot;P&quot;,&quot;glyphIndex&quot;:3,&quot;word&quot;:1}"></path><path d="M256.03109,281.22714h-2.11626c-0.10323,-1.47966 -0.34411,-2.71845 -0.72263,-3.71636c-0.37852,-0.99791 -0.92049,-1.78075 -1.62591,-2.34853c-0.70542,-0.56778 -1.5915,-0.9721 -2.65823,-1.21298c-1.06673,-0.24088 -2.33993,-0.36131 -3.81959,-0.36131c-1.2732,0 -2.29692,0.02581 -3.07116,0.07742c-0.77424,0.05162 -1.36783,0.14625 -1.78075,0.28389c-0.41293,0.13764 -0.67961,0.30109 -0.80005,0.49035c-0.12044,0.18926 -0.18066,0.43874 -0.18066,0.74843v27.6146c0,1.10114 0.07742,2.04744 0.23227,2.83888c0.15485,0.79145 0.46454,1.43665 0.92909,1.9356c0.46454,0.49896 1.13555,0.87747 2.01303,1.13555c0.87747,0.25808 2.03883,0.40433 3.48409,0.43874v1.96141h-19.51088v-1.96141c1.44525,-0.03441 2.61521,-0.18066 3.50989,-0.43874c0.89468,-0.25808 1.57429,-0.6366 2.03883,-1.13555c0.46454,-0.49896 0.77424,-1.14416 0.92909,-1.9356c0.15485,-0.79145 0.23227,-1.73774 0.23227,-2.83888v-27.6146c0,-0.3097 -0.06022,-0.55917 -0.18066,-0.74843c-0.12044,-0.18926 -0.36131,-0.35271 -0.72263,-0.49035c-0.36131,-0.13764 -0.86887,-0.23227 -1.52267,-0.28389c-0.6538,-0.05162 -1.53128,-0.07742 -2.63242,-0.07742c-1.34202,0 -2.58941,0.05162 -3.74217,0.15485c-1.15276,0.10323 -2.15067,0.40433 -2.99373,0.90328c-0.84306,0.49896 -1.52267,1.26459 -2.03883,2.29692c-0.51616,1.03232 -0.79145,2.46037 -0.82586,4.28413h-1.90979v-9.85867h38.97014z" data-paper-data="{&quot;glyphName&quot;:&quot;T&quot;,&quot;glyphIndex&quot;:4,&quot;word&quot;:1}"></path><path d="M280.85842,270.85231c3.02814,0 5.84982,0.53337 8.46504,1.6001c2.61521,1.06673 4.88632,2.52919 6.81332,4.38737c1.927,1.85818 3.44107,4.04326 4.54221,6.55524c1.10114,2.51198 1.65171,5.23043 1.65171,8.15534c0,2.78727 -0.55917,5.40248 -1.67752,7.84564c-1.11835,2.44316 -2.64102,4.56802 -4.56802,6.37459c-1.927,1.80656 -4.19811,3.23461 -6.81332,4.28413c-2.61521,1.04953 -5.41969,1.57429 -8.41342,1.57429c-2.99373,0 -5.79821,-0.52476 -8.41342,-1.57429c-2.61521,-1.04953 -4.88632,-2.47757 -6.81332,-4.28413c-1.927,-1.80656 -3.44967,-3.93142 -4.56802,-6.37459c-1.11835,-2.44316 -1.67752,-5.05838 -1.67752,-7.84564c0,-2.92491 0.55057,-5.64336 1.65171,-8.15534c1.10114,-2.51198 2.61521,-4.69706 4.54221,-6.55524c1.927,-1.85818 4.19811,-3.32063 6.81332,-4.38737c2.61521,-1.06673 5.43689,-1.6001 8.46504,-1.6001zM280.85842,308.79013c2.27111,0 4.30994,-0.39572 6.1165,-1.18717c1.80656,-0.79145 3.35504,-1.927 4.64545,-3.40666c1.2904,-1.47966 2.27971,-3.27762 2.96792,-5.39388c0.68821,-2.11626 1.03232,-4.482 1.03232,-7.09721c0,-2.75286 -0.34411,-5.23903 -1.03232,-7.45852c-0.68821,-2.21949 -1.66892,-4.11208 -2.94212,-5.67777c-1.2732,-1.56569 -2.82168,-2.77006 -4.64545,-3.61313c-1.82377,-0.84306 -3.87121,-1.26459 -6.14231,-1.26459c-2.27111,0 -4.31854,0.42153 -6.14231,1.26459c-1.82377,0.84306 -3.37225,2.04744 -4.64545,3.61313c-1.2732,1.56569 -2.2539,3.45828 -2.94212,5.67777c-0.68821,2.21949 -1.03232,4.70567 -1.03232,7.45852c0,2.61521 0.34411,4.98095 1.03232,7.09721c0.68821,2.11626 1.66892,3.91422 2.94212,5.39388c1.2732,1.47966 2.82168,2.61521 4.64545,3.40666c1.82377,0.79145 3.87121,1.18717 6.14231,1.18717z" data-paper-data="{&quot;glyphName&quot;:&quot;O&quot;,&quot;glyphIndex&quot;:5,&quot;word&quot;:1}"></path><path d="M308.26656,298.98307h1.90979c0.24088,1.54848 0.69682,2.94212 1.36783,4.1809c0.67101,1.23879 1.51407,2.28831 2.52919,3.14858c1.01512,0.86027 2.18508,1.52267 3.50989,1.98722c1.32481,0.46454 2.76146,0.69682 4.30994,0.69682c2.54639,0 4.55942,-0.60219 6.03908,-1.80656c1.47966,-1.20438 2.21949,-2.83888 2.21949,-4.90353c0,-0.86027 -0.14625,-1.65171 -0.43874,-2.37434c-0.29249,-0.72263 -0.78284,-1.41944 -1.47106,-2.09045c-0.68821,-0.67101 -1.6087,-1.33342 -2.76146,-1.98722c-1.15276,-0.6538 -2.60661,-1.35922 -4.36156,-2.11626c-2.13346,-0.92909 -3.92282,-1.82377 -5.36807,-2.68404c-1.44525,-0.86027 -2.59801,-1.75495 -3.45828,-2.68404c-0.86027,-0.92909 -1.47106,-1.9184 -1.83237,-2.96792c-0.36131,-1.04953 -0.54197,-2.2453 -0.54197,-3.58732c0,-1.58289 0.28389,-3.04535 0.85167,-4.38737c0.56778,-1.34202 1.36783,-2.50338 2.40015,-3.48409c1.03232,-0.98071 2.2539,-1.73774 3.66474,-2.27111c1.41084,-0.53337 2.95932,-0.80005 4.64545,-0.80005c1.51407,0 2.92491,0.24088 4.23252,0.72263c1.30761,0.48175 2.63242,1.25599 3.97444,2.32272l1.34202,-2.32272h1.18717l0.56778,10.2716h-1.90979c-0.82586,-2.82168 -2.02163,-4.92073 -3.58732,-6.29716c-1.56569,-1.37643 -3.44967,-2.06464 -5.65196,-2.06464c-2.09905,0 -3.76797,0.51616 -5.00676,1.54848c-1.23879,1.03232 -1.85818,2.42596 -1.85818,4.1809c0,0.82586 0.13764,1.57429 0.41293,2.2453c0.27529,0.67101 0.72263,1.30761 1.34202,1.90979c0.61939,0.60219 1.42804,1.20438 2.42596,1.80656c0.99791,0.60219 2.2367,1.23018 3.71636,1.88399c2.54639,1.13555 4.66265,2.19368 6.34878,3.17439c1.68613,0.98071 3.02814,1.96141 4.02605,2.94212c0.99791,0.98071 1.70333,2.01303 2.11626,3.09696c0.41293,1.08394 0.61939,2.29692 0.61939,3.63893c0,1.72054 -0.34411,3.30343 -1.03232,4.74868c-0.68821,1.44525 -1.65171,2.68404 -2.8905,3.71636c-1.23879,1.03232 -2.71845,1.83237 -4.43898,2.40015c-1.72054,0.56778 -3.61313,0.85167 -5.67777,0.85167c-1.96141,0 -3.72496,-0.27529 -5.29065,-0.82586c-1.56569,-0.55057 -3.15718,-1.47966 -4.77449,-2.78727l-1.44525,2.52919h-1.18717z" data-paper-data="{&quot;glyphName&quot;:&quot;S&quot;,&quot;glyphIndex&quot;:6,&quot;word&quot;:1}"></path><path d="M374.2319,311.11285h-33.34398v-1.96141c1.20438,-0.03441 2.17648,-0.13764 2.91631,-0.3097c0.73983,-0.17205 1.31621,-0.46454 1.72914,-0.87747c0.41293,-0.41293 0.68821,-0.99791 0.82586,-1.75495c0.13764,-0.75704 0.20646,-1.73774 0.20646,-2.94212v-24.05309c0,-1.20438 -0.06022,-2.17648 -0.18066,-2.91631c-0.12044,-0.73983 -0.36131,-1.32481 -0.72263,-1.75495c-0.36131,-0.43013 -0.88608,-0.72263 -1.57429,-0.87747c-0.68821,-0.15485 -1.58289,-0.26668 -2.68404,-0.3355v-1.96141h15.69129v1.96141c-1.10114,0.03441 -1.98722,0.13764 -2.65823,0.3097c-0.67101,0.17205 -1.18717,0.48175 -1.54848,0.92909c-0.36131,0.44734 -0.60219,1.06673 -0.72263,1.85818c-0.12044,0.79145 -0.18066,1.84097 -0.18066,3.14858v22.24653c0,1.44525 0.14625,2.62382 0.43874,3.5357c0.29249,0.91188 0.79145,1.6173 1.49687,2.11626c0.70542,0.49896 1.64311,0.84306 2.81308,1.03232c1.16996,0.18926 2.64963,0.28389 4.43898,0.28389c1.96141,0 3.61313,-0.11183 4.95514,-0.3355c1.34202,-0.22367 2.46897,-0.61939 3.38085,-1.18717c0.91188,-0.56778 1.63451,-1.35922 2.16788,-2.37434c0.53337,-1.01512 0.98931,-2.33133 1.36783,-3.94863h1.96141z" data-paper-data="{&quot;glyphName&quot;:&quot;L&quot;,&quot;glyphIndex&quot;:7,&quot;word&quot;:1}"></path><path d="M389.51026,289.27925c1.85818,0 3.41526,-0.11183 4.67125,-0.3355c1.25599,-0.22367 2.2539,-0.57638 2.99373,-1.05813c0.73983,-0.48175 1.2732,-1.10114 1.6001,-1.85818c0.3269,-0.75704 0.49035,-1.65171 0.49035,-2.68404h1.80656v14.09119h-1.80656c0,-1.03232 -0.14625,-1.927 -0.43874,-2.68404c-0.29249,-0.75704 -0.80865,-1.38503 -1.54848,-1.88399c-0.73983,-0.49896 -1.73774,-0.87747 -2.99373,-1.13555c-1.25599,-0.25808 -2.84749,-0.38712 -4.77449,-0.38712v11.66523c0,1.13555 0.13764,2.07325 0.41293,2.81308c0.27529,0.73983 0.74843,1.34202 1.41944,1.80656c0.67101,0.46454 1.55708,0.79145 2.65823,0.98071c1.10114,0.18926 2.46037,0.28389 4.07767,0.28389c1.82377,0 3.37225,-0.12904 4.64545,-0.38712c1.2732,-0.25808 2.33993,-0.69682 3.2002,-1.31621c0.86027,-0.61939 1.54848,-1.43665 2.06464,-2.45176c0.51616,-1.01512 0.94629,-2.27971 1.2904,-3.79378h1.96141l-0.77424,10.16837h-32.05358v-1.96141c1.20438,-0.03441 2.17648,-0.13764 2.91631,-0.3097c0.73983,-0.17205 1.31621,-0.46454 1.72914,-0.87747c0.41293,-0.41293 0.68821,-0.99791 0.82586,-1.75495c0.13764,-0.75704 0.20646,-1.73774 0.20646,-2.94212v-24.05309c0,-1.20438 -0.06022,-2.17648 -0.18066,-2.91631c-0.12044,-0.73983 -0.36131,-1.32481 -0.72263,-1.75495c-0.36131,-0.43013 -0.88608,-0.72263 -1.57429,-0.87747c-0.68821,-0.15485 -1.58289,-0.26668 -2.68404,-0.3355v-1.96141h29.83409l0.46454,9.08443h-1.80656c-0.20646,-1.37643 -0.54197,-2.50338 -1.00651,-3.38085c-0.46454,-0.87747 -1.10114,-1.57429 -1.90979,-2.09045c-0.80865,-0.51616 -1.83237,-0.87747 -3.07116,-1.08394c-1.23879,-0.20646 -2.73565,-0.3097 -4.4906,-0.3097h-6.55524c-0.58498,0 -0.87747,0.29249 -0.87747,0.87747z" data-paper-data="{&quot;glyphName&quot;:&quot;E&quot;,&quot;glyphIndex&quot;:8,&quot;word&quot;:1}"></path><path d="M426.98353,289.27925c1.85818,0 3.41526,-0.11183 4.67125,-0.3355c1.25599,-0.22367 2.2539,-0.57638 2.99373,-1.05813c0.73983,-0.48175 1.2732,-1.10114 1.6001,-1.85818c0.3269,-0.75704 0.49035,-1.65171 0.49035,-2.68404h1.80656v14.09119h-1.80656c0,-1.03232 -0.14625,-1.927 -0.43874,-2.68404c-0.29249,-0.75704 -0.80865,-1.38503 -1.54848,-1.88399c-0.73983,-0.49896 -1.73774,-0.87747 -2.99373,-1.13555c-1.25599,-0.25808 -2.84749,-0.38712 -4.77449,-0.38712v11.66523c0,1.13555 0.13764,2.07325 0.41293,2.81308c0.27529,0.73983 0.74843,1.34202 1.41944,1.80656c0.67101,0.46454 1.55708,0.79145 2.65823,0.98071c1.10114,0.18926 2.46037,0.28389 4.07767,0.28389c1.82377,0 3.37225,-0.12904 4.64545,-0.38712c1.2732,-0.25808 2.33993,-0.69682 3.2002,-1.31621c0.86027,-0.61939 1.54848,-1.43665 2.06464,-2.45176c0.51616,-1.01512 0.94629,-2.27971 1.2904,-3.79378h1.96141l-0.77424,10.16837h-32.05358v-1.96141c1.20438,-0.03441 2.17648,-0.13764 2.91631,-0.3097c0.73983,-0.17205 1.31621,-0.46454 1.72914,-0.87747c0.41293,-0.41293 0.68821,-0.99791 0.82586,-1.75495c0.13764,-0.75704 0.20646,-1.73774 0.20646,-2.94212v-24.05309c0,-1.20438 -0.06022,-2.17648 -0.18066,-2.91631c-0.12044,-0.73983 -0.36131,-1.32481 -0.72263,-1.75495c-0.36131,-0.43013 -0.88608,-0.72263 -1.57429,-0.87747c-0.68821,-0.15485 -1.58289,-0.26668 -2.68404,-0.3355v-1.96141h29.83409l0.46454,9.08443h-1.80656c-0.20646,-1.37643 -0.54197,-2.50338 -1.00651,-3.38085c-0.46454,-0.87747 -1.10114,-1.57429 -1.90979,-2.09045c-0.80865,-0.51616 -1.83237,-0.87747 -3.07116,-1.08394c-1.23879,-0.20646 -2.73565,-0.3097 -4.4906,-0.3097h-6.55524c-0.58498,0 -0.87747,0.29249 -0.87747,0.87747z" data-paper-data="{&quot;glyphName&quot;:&quot;E&quot;,&quot;glyphIndex&quot;:9,&quot;word&quot;:1}"></path><path d="M485,281.33038c0,1.82377 -0.29249,3.45828 -0.87747,4.90353c-0.58498,1.44525 -1.50547,2.66683 -2.76146,3.66474c-1.25599,0.99791 -2.8905,1.77215 -4.90353,2.32272c-2.01303,0.55057 -4.46479,0.82586 -7.35529,0.82586h-4.64545v9.9619c0,1.2732 0.07742,2.31412 0.23227,3.12277c0.15485,0.80865 0.48175,1.43665 0.98071,1.88399c0.49896,0.44734 1.22158,0.74843 2.16788,0.90328c0.94629,0.15485 2.19368,0.23227 3.74217,0.23227v1.96141h-18.22047v-1.96141c1.20438,-0.03441 2.17648,-0.13764 2.91631,-0.3097c0.73983,-0.17205 1.31621,-0.46454 1.72914,-0.87747c0.41293,-0.41293 0.68821,-0.99791 0.82586,-1.75495c0.13764,-0.75704 0.20646,-1.73774 0.20646,-2.94212v-24.05309c0,-1.20438 -0.06022,-2.17648 -0.18066,-2.91631c-0.12044,-0.73983 -0.36131,-1.32481 -0.72263,-1.75495c-0.36131,-0.43013 -0.88608,-0.72263 -1.57429,-0.87747c-0.68821,-0.15485 -1.58289,-0.26668 -2.68404,-0.3355v-1.96141h16.20745c4.74868,0 8.42202,0.87747 11.02003,2.63242c2.59801,1.75495 3.89701,4.19811 3.89701,7.32948zM464.4568,290.46642h3.66474c3.44107,0 5.99607,-0.66241 7.66499,-1.98722c1.66892,-1.32481 2.50338,-3.50129 2.50338,-6.52943c0,-2.92491 -0.66241,-5.01536 -1.98722,-6.27135c-1.32481,-1.25599 -3.39806,-1.88399 -6.21974,-1.88399h-4.74868c-0.58498,0 -0.87747,0.29249 -0.87747,0.87747z" data-paper-data="{&quot;glyphName&quot;:&quot;P&quot;,&quot;glyphIndex&quot;:10,&quot;lastGlyphOfWord&quot;:true,&quot;word&quot;:1}"></path></g><g data-paper-data="{&quot;fillRule&quot;:&quot;evenodd&quot;,&quot;fillRuleOriginal&quot;:&quot;evenodd&quot;,&quot;isIcon&quot;:true,&quot;iconStyle&quot;:&quot;standalone&quot;,&quot;selectedEffects&quot;:{&quot;container&quot;:&quot;&quot;,&quot;transformation&quot;:&quot;&quot;,&quot;pattern&quot;:&quot;&quot;},&quot;bounds&quot;:{&quot;x&quot;:192.24476203937286,&quot;y&quot;:158.3709884803826,&quot;width&quot;:165.51047592125428,&quot;height&quot;:92.49114709194748},&quot;iconType&quot;:&quot;icon&quot;,&quot;rawIconId&quot;:&quot;438753&quot;,&quot;combineTerms&quot;:&quot;sleep&quot;,&quot;suitableAsStandaloneIcon&quot;:true}" fill-rule="evenodd"><path d="M303.3964,178.85697c0,0 12.16989,11.15573 29.20773,10.14157c13.99537,-0.81132 25.1511,3.2453 25.1511,5.88211v42.39177c0,7.50477 -6.08494,13.58971 -13.58971,13.58971h-0.40567h-137.92539c-7.50477,0 -13.58971,-6.08494 -13.58971,-13.58971v-5.67928c0,-6.49061 4.66512,-11.96705 10.9529,-13.18404c-2.63681,-0.60849 -5.07079,-2.02831 -6.89627,-4.05663c-2.63681,-2.83964 -3.8538,-6.69344 -3.65096,-10.54724l1.41982,-18.45766l0.40567,-0.20283c0.20283,-0.20283 12.57555,-4.25946 28.19357,-2.83964c2.23115,-13.58971 13.99537,-23.93411 28.19357,-23.93411c3.44814,0 6.69344,0.60849 9.73591,1.62265c8.11326,2.23115 11.76423,7.30193 13.18404,9.93874c0.40567,0.40567 0.81132,1.01416 1.01416,1.41982c0.60849,-0.20283 3.65096,-0.81132 7.7076,-0.81132c6.08494,0 14.1982,1.41982 20.89164,8.31609zM273.78301,171.96071c-12.37272,0.81132 -18.45766,-8.51892 -18.45766,-8.51892c-6.69344,10.3444 -16.83501,16.63218 -23.93411,20.08032c7.50477,1.62265 15.41519,4.66512 22.51429,10.14157c1.01416,-1.41982 2.83964,-2.23115 4.66512,-2.23115c3.44814,0 6.28778,2.83964 6.28778,6.28778c0,1.62265 -0.81132,3.2453 -2.02831,4.46229l3.65096,4.86795l7.91042,-34.27852c-0.20283,-0.20283 -0.40567,-0.60849 -0.60849,-0.81132zM286.96705,249.64515l6.89627,-31.6417l8.31609,-38.53798c-6.28778,-6.28778 -14.1982,-7.7076 -19.67465,-7.7076c-3.2453,0 -5.67928,0.40567 -6.89627,0.60849v0.20283l-0.20283,0.81132l-0.20283,0.81132l-8.11326,34.07568c0.20283,0 0.20283,0.20283 0.20283,0.20283c0,0.20283 -0.20283,0.20283 -0.20283,0.20283v0.40567v0.40567c0,0.20283 -0.20283,0.20283 -0.20283,0.20283c0.20283,0 0.20283,0.20283 0.20283,0.20283l-0.20283,0.40567l-1.62265,7.30193l-0.20283,0.40567l-0.20283,0.60849l-7.0991,30.83038zM257.55649,180.68245c-1.41982,1.01416 -3.2453,1.41982 -4.66512,1.41982c-1.62265,0 -3.04247,-0.40567 -3.04247,-0.40567l0.20283,-0.60849v-0.40567c0,0 0.14279,0 0.42858,0.11987l0.17991,-0.11987c1.21699,0.20283 4.46229,0.60849 6.28778,-1.01416c1.01416,-0.81132 1.62265,-2.23115 1.62265,-4.25946v-0.20283h0.30425l0.30425,-0.20283h0.60849c0,2.63681 -0.81132,4.46229 -2.23115,5.67928zM197.31555,213.33832c2.43398,2.63681 5.67928,4.25946 9.33025,4.25946c23.93411,0.40567 47.86823,0 57.40131,-0.20283l1.41982,-6.49061l0.20283,-0.81132l0.20283,-0.81132l0.20283,-1.01416c-1.41982,-1.82548 -2.83964,-3.8538 -4.25946,-5.47645c-2.83964,-3.2453 -5.67928,-6.08494 -8.72176,-8.31609c-7.50477,-5.67928 -15.82086,-8.92458 -23.52845,-10.3444c-2.02831,-0.40567 -3.8538,-0.60849 -5.88211,-0.81132h-1.01416c-13.79254,-1.21699 -25.35393,2.02831 -27.38225,2.63681l-1.41982,17.64634c-0.20283,3.65096 1.01416,7.0991 3.44814,9.73591z" data-paper-data="{&quot;isPathIcon&quot;:true}"></path></g></g></g></svg>