<svg xmlns="http://www.w3.org/2000/svg" width="32" height="32" fill="none" viewBox="0 0 32 32"><g filter="url(#filter0_d_8021_18926)"><ellipse cx="15.64" cy="18.694" fill="#C6E7F5" rx="13.64" ry="4.096"/></g><ellipse cx="15.64" cy="18.012" fill="#fff" rx="13.64" ry="4.096"/><g clip-path="url(#clip0_8021_18926)"><path fill="#5A31DD" d="m14.2 20.507 1.922-1.117.001-.463-1.92 1.117-.002.463ZM6.932 15.523l-.002.784 7.27 4.2.002-.463.001-.32-7.27-4.2Z"/><path fill="#fff" d="m14.202 20.044 1.921-1.118.001-.32-1.92 1.117-.002.32Z"/><path fill="#fff" d="m14.203 19.724 1.921-1.117-7.27-4.2-1.922 1.116 7.271 4.2Z"/><path fill="#fff" d="m14.203 19.724 1.921-1.117.005-1.665-1.921 1.117-.005 1.665Z"/><path fill="#845FFF" d="m14.208 18.06 1.921-1.117.006-2.165-1.92 1.117-.007 2.165ZM9.924 8.245 8.003 9.363c.66-.385 1.576-.33 2.586.253l1.92-1.117c-1.01-.584-1.925-.638-2.585-.254Z"/><path fill="#5A31DD" d="M10.589 9.616c-2.007-1.16-3.64-.229-3.646 2.079l-.011 3.828 7.27 4.2.005-1.663.006-2.165c.007-2.307-1.615-5.118-3.625-6.28Z"/><path fill="#845FFF" d="m14.214 15.895 1.921-1.117c.006-2.308-1.615-5.119-3.625-6.28l-1.921 1.117c2.01 1.161 3.632 3.972 3.625 6.28Z"/><path fill="#5A31DD" d="M14.214 15.738v.157l-.006 2.164.667.386.007-2.321-.668-.386Z"/><path fill="#5A31DD" d="m14.875 18.445 1.921-1.117.006-2.321-1.92 1.117-.007 2.321Z"/><path fill="#fff" d="m14.882 16.123 1.92-1.117-.667-.385-1.92 1.117.667.386Z"/><path fill="#5A31DD" d="M14.203 19.72v.324l6.914 3.995v-.324l-6.914-3.994Z"/><path fill="#845FFF" d="m21.116 24.04 1.921-1.118.002-.323-1.922 1.117v.323Z"/><path fill="#845FFF" d="m14.205 19.72 6.914 3.996 1.922-1.118-.695-.4-.264-.155-.818-.468-.263-.154-.813-.473-.264-.15-.817-.473-.264-.15-.818-.472-.259-.15-.817-.473-.264-.155-.563-.323-1.917 1.119Z"/><path fill="#888ABF" d="M21.117 23.715v.323l-.003.774.325.188.003-1.097-.325-.188Z"/><path fill="#AEB2F4" d="m21.44 25 1.92-1.118.003-1.097-1.92 1.117L21.438 25Z"/><path fill="#D7DAFF" d="m21.442 23.902 1.921-1.117-.324-.187-1.922 1.117.325.188Z"/><path fill="#fff" d="m16.036 19.302.263.15.65-.373-.264-.154-.65.377ZM17.117 19.925l.264.15.644-.373-.259-.15-.649.373ZM18.194 20.547l.263.15.65-.372-.264-.15-.65.372ZM19.274 21.17l.264.155.65-.377-.264-.15-.65.373ZM20.356 21.792l.259.155.65-.373L21 21.42l-.645.372ZM21.433 22.42l.263.15.65-.372-.264-.155-.65.377ZM11.359 13.191v2.787l-1.571-.908v-2.787l1.57.908Zm-.784 1.33c.209.121.381-.072.381-.428 0-.357-.172-.75-.381-.87-.212-.123-.385.068-.385.427 0 .36.173.75.385.872ZM9.788 15.65l1.57.907v-.579l-1.57-.908v.58Z"/></g><defs><clipPath id="clip0_8021_18926"><path fill="#fff" d="M23.363 8H6.93v17h16.433z"/></clipPath><filter id="filter0_d_8021_18926" width="31.279" height="12.191" x="0" y="14.599" color-interpolation-filters="sRGB" filterUnits="userSpaceOnUse"><feFlood flood-opacity="0" result="BackgroundImageFix"/><feColorMatrix in="SourceAlpha" result="hardAlpha" type="matrix" values="0 0 0 0 0 0 0 0 0 0 0 0 0 0 0 0 0 0 127 0"/><feOffset dy="2"/><feGaussianBlur stdDeviation="1"/><feComposite in2="hardAlpha" operator="out"/><feColorMatrix type="matrix" values="0 0 0 0 0.741176 0 0 0 0 0.67451 0 0 0 0 0.952941 0 0 0 1 0"/><feBlend in2="BackgroundImageFix" mode="normal" result="effect1_dropShadow_8021_18926"/><feBlend in="SourceGraphic" in2="effect1_dropShadow_8021_18926" mode="normal" result="shape"/></filter></defs></svg>