<svg xmlns="http://www.w3.org/2000/svg" width="32" height="32" fill="none" viewBox="0 0 32 32"><g clip-path="url(#clip0_8020_15847)"><g filter="url(#filter0_d_8020_15847)"><ellipse cx="16.133" cy="21.575" fill="#C6E7F5" rx="14.133" ry="5.425"/></g><ellipse cx="16.133" cy="20.671" fill="#fff" rx="14.133" ry="5.425"/><path fill="#5A31DD" d="M10.938 12.889c-.556-1.66-.557-3.5-.63-5.231-.023-.525-.117-1.308.172-1.782a.547.547 0 0 1 .362-.274c.27-.09.544-.162.819-.232.37-.094.665.023 1.032.11.393.092.795.175 1.199.172.435-.004.919-.162 1.342-.285.438-.128.88-.24 1.32-.36.404-.037.793.088 1.176.205.516.157 1.03.331 1.57.381.442.042.879-.046 1.309-.142.465-.102 1.089-.464 1.435.051.315.47.265 1.254.271 1.778.023 1.731.124 3.57-.34 5.24-.397 1.43-.953 2.847-1.832 4.054-.714.98-1.757 1.929-2.907 2.334-.45.159-1.034.406-1.505.198-.787-.348-1.56-.93-2.163-1.545-1.272-1.296-2.064-2.985-2.63-4.672Z"/><path fill="#E7E0FC" d="M11.835 6.098a.502.502 0 0 1 .455-.264c.23-.002.489.105.728.16.361.086.732.162 1.103.16.08-.001.162-.006.243-.015.642-.071 1.233-.33 1.846-.51.18-.052.339-.075.49-.076.312-.003.592.085.953.195.475.145.949.305 1.445.351.081.008.163.011.243.01.371-.003.737-.086 1.094-.177.237-.06.49-.171.72-.173a.525.525 0 0 1 .469.257c.29.432.243 1.153.25 1.636.02 1.593.113 3.285-.314 4.821-.365 1.317-.877 2.62-1.686 3.731a6.533 6.533 0 0 1-1.417 1.44c-.398.29-.89.705-1.405.709a.92.92 0 0 1-.385-.08c-.724-.32-1.435-.857-1.99-1.421-1.171-1.193-1.9-2.748-2.42-4.3-.512-1.528-.514-3.222-.581-4.814-.02-.483-.107-1.203.159-1.64Z" opacity=".2"/><path fill="#fff" d="M20.498 8.812a.796.796 0 0 0-.59-.27.828.828 0 0 0-.604.26l-3.288 3.405-1.568-1.75a.797.797 0 0 0-.59-.272.83.83 0 0 0-.604.26.957.957 0 0 0-.035 1.283l2.148 2.398a.8.8 0 0 0 1.193.01l3.903-4.042a.956.956 0 0 0 .035-1.282Z"/><path stroke="#CFC7E8" stroke-linecap="square" stroke-width="1.5" d="M10.669 20.762c1.64.594 6.062 1.427 10.64 0"/></g><defs><clipPath id="clip0_8020_15847"><path fill="#fff" d="M0 0h32v32H0z"/></clipPath><filter id="filter0_d_8020_15847" width="32.266" height="14.85" x="0" y="16.15" color-interpolation-filters="sRGB" filterUnits="userSpaceOnUse"><feFlood flood-opacity="0" result="BackgroundImageFix"/><feColorMatrix in="SourceAlpha" result="hardAlpha" type="matrix" values="0 0 0 0 0 0 0 0 0 0 0 0 0 0 0 0 0 0 127 0"/><feOffset dy="2"/><feGaussianBlur stdDeviation="1"/><feComposite in2="hardAlpha" operator="out"/><feColorMatrix type="matrix" values="0 0 0 0 0.741176 0 0 0 0 0.67451 0 0 0 0 0.952941 0 0 0 1 0"/><feBlend in2="BackgroundImageFix" mode="normal" result="effect1_dropShadow_8020_15847"/><feBlend in="SourceGraphic" in2="effect1_dropShadow_8020_15847" mode="normal" result="shape"/></filter></defs></svg>